# AST/ASF file generated using VICON BodyLanguage
# -----------------------------------------------
:version 1.10
:name VICON
:units
  mass 1.0
  length 0.45
  angle deg
:documentation
   .ast/.asf automatically generated from VICON data using
   VICON BodyBuilder and BodyLanguage model FoxedUp or BRILLIANT.MOD
:root
   order TX TY TZ RX RY RZ
   axis XYZ
   position 0 0 0  
   orientation 0 0 0 
:bonedata
  begin
     id 1 
     name lhipjoint
     direction 0.734343 -0.627749 0.258209 
     length 2.5437 
     axis 0 0 0  XYZ
  end
  begin
     id 2 
     name lfemur
     direction 0.34202 -0.939693 0  
     length 6.7391  
     axis 0 0 20  XYZ
    dof rx ry rz
    limits (-160.0 20.0)
           (-70.0 70.0)
           (-60.0 70.0)
  end
  begin
     id 3 
     name ltibia
     direction 0.34202 -0.939693 0   
     length 7.21536   
     axis 0 0 20   XYZ
    dof rx
    limits (-10.0 170.0)
  end
  begin
     id 4 
     name lfoot
     direction 0.0489572 -0.134509 0.989702   
     length 1.61313   
     axis -90 7.62852e-016 20   XYZ
    dof rx rz
    limits (-45.0 90.0)
           (-70.0 20.0)
  end
  begin
     id 5 
     name ltoes
     direction 1.53451e-011 -4.21692e-011 1   
     length 0.823104   
     axis -90 7.62852e-016 20   XYZ
    dof rx
    limits (-90.0 20.0)
  end
  begin
     id 6 
     name rhipjoint
     direction -0.746398 -0.615468 0.253157   
     length 2.59446  
     axis 0 0 0  XYZ 
  end
  begin
     id 7 
     name rfemur
     direction -0.34202 -0.939693 0   
     length 6.7075   
     axis 0 0 -20   XYZ
    dof rx ry rz
    limits (-160.0 20.0)
           (-70.0 70.0)
           (-70.0 60.0)
  end
  begin
     id 8 
     name rtibia
     direction -0.34202 -0.939693 0   
     length 7.27262   
     axis 0 0 -20   XYZ
    dof rx
    limits (-10.0 170.0)
 end
 begin
     id 9 
     name rfoot
     direction -0.0455203 -0.125066 0.991104   
     length 1.91095  
     axis -90 -7.62852e-016 -20   XYZ
    dof rx rz
    limits (-45.0 90.0)
           (-20.0 70.0)
  end
  begin
     id 10 
     name rtoes
     direction -1.53601e-011 -4.21913e-011 1   
     length 0.969037   
     axis -90 -7.62852e-016 -20   XYZ
    dof rx
    limits (-90.0 20.0)
  end
  begin
     id 11 
     name lowerback
     direction 0.0181546 0.999122 -0.0377542   
     length 1.99916   
     axis 0 0 0   XYZ
    dof rx ry rz
    limits (-20.0 45.0)
           (-30.0 30.0)
           (-30.0 30.0)
  end
  begin
     id 12 
     name upperback
     direction 0.0203486 0.99589 0.0882534   
     length 1.951   
     axis 0 0 0   XYZ
    dof rx ry rz
    limits (-20.0 45.0)
           (-30.0 30.0)
           (-30.0 30.0)
  end
  begin
     id 13 
     name thorax
     direction 0.0131685 0.994241 0.106355   
     length 1.97461   
     axis 0 0 0   XYZ
    dof rx ry rz
    limits (-20.0 45.0)
           (-30.0 30.0)
           (-30.0 30.0)
  end
  begin
     id 14 
     name lowerneck
     direction -0.0281395 0.999325 0.023617   
     length 1.7959   
     axis 0 0 0   XYZ
    dof rx ry rz
    limits (-20.0 45.0)
           (-30.0 30.0)
           (-30.0 30.0)
  end
  begin
     id 15 
     name upperneck
     direction 0.0288721 0.991984 -0.123019   
     length 1.79917   
     axis 0 0 0   XYZ
    dof rx ry rz
    limits (-20.0 45.0)
           (-30.0 30.0)
           (-30.0 30.0)
  end
  begin
     id 16
     name head
     direction 0.0133797 0.998944 -0.0439492  
     length 1.80902  
     axis 0 0 0   XYZ
    dof rx ry rz
    limits (-20.0 45.0)
           (-30.0 30.0)
           (-30.0 30.0)
  end
  begin
     id 17 
     name lclavicle
     direction 0.919195 0.377107 0.113449  
     length 3.17815  
     axis 0 0 0   XYZ
    dof ry rz
    limits (-20.0 10.0)
           (0.0 20.0)
  end
  begin
     id 18 
     name lhumerus
     direction 1 -4.48959e-011 2.13129e-027   
     length 4.84137   
     axis 180 -30 -90   XYZ
    dof rx ry rz
    limits (-60.0 90.0)
           (-90.0 90.0)
           (-90.0 90.0)
  end
  begin
     id 19
     name lradius
     direction 1 -4.48957e-011 -6.30627e-028   
     length 3.2452   
     axis 180 -30 -90   XYZ
    dof rx
    limits (-10.0 170.0)
  end
  begin
     id 20
     name lwrist
     direction 1 -4.4901e-011 9.13299e-027   
     length 1.6226   
     axis -6.84618e-015 90 90   XYZ
    dof ry
    limits (-180.0 0.0)
 end
  begin
     id 21 
     name lhand
     direction 1 -4.48816e-011 1.82293e-026   
     length 0.521221   
     axis -1.16502e-014 90 90   XYZ
    dof rx rz
    limits (-90.0 90.0)
           (-45.0 45.0)
  end
  begin
     id 22 
     name lfingers
     direction 1 -4.49108e-011 3.65687e-026   
     length 0.420221   
     axis -2.33008e-014 90 90   XYZ
    dof rx
    limits (0.0 90.0)
  end
  begin
     id 23
     name lthumb
     direction 0.707107 -6.34943e-011 0.707107   
     length 0.603356   
     axis -90 45 5.69224e-014   XYZ
    dof rx rz
    limits (-45.0 45.0)
           (-45.0 45.0)
  end
  begin
     id 24 
     name rclavicle
     direction -0.90847 0.38596 0.160368   
     length 3.12973  
     axis 0 0 0   XYZ 
    dof ry rz
    limits (-10.0 20.0)
           (-20.0 0.0)
  end
  begin
     id 25 
     name rhumerus
     direction -1 -4.48974e-011 4.47268e-028  
     length 4.72284   
     axis 180 30 90   XYZ
    dof rx ry rz
    limits (-90.0 60.0)
           (-90.0 90.0)
           (-90.0 90.0)
  end
  begin
     id 26 
     name rradius
     direction -1 -4.48969e-011 3.43203e-027   
     length 3.23459   
     axis 180 30 90   XYZ
    dof rx
    limits (-10.0 170.0)
  end
  begin
     id 27 
     name rwrist
     direction -1 -4.48969e-011 9.12911e-027   
     length 1.6173   
     axis -6.84618e-015 -90 -90   XYZ
    dof ry
    limits (-180.0 0.0)
  end
  begin
     id 28
     name rhand
     direction -1 -4.49194e-011 1.83006e-026   
     length 0.307416   
     axis -1.16502e-014 -90 -90   XYZ
    dof rx rz
    limits (-90.0 90.0)
           (-45.0 45.0)
  end
  begin
     id 29
     name rfingers
     direction -1 -4.48423e-011 3.63103e-026   
     length 0.247847   
     axis -2.33008e-014 -90 -90   XYZ
    dof rx
    limits (0.0 90.0)
  end
  begin
     id 30
     name rthumb
     direction -0.707107 -6.34802e-011 0.707107   
     length 0.35586   
     axis -90 -45 -5.69224e-014   XYZ
    dof rx rz
    limits (-45.0 45.0)
           (-45.0 45.0)
  end
:hierarchy
  begin
    root lhipjoint rhipjoint lowerback
    lhipjoint lfemur
    lfemur ltibia
    ltibia lfoot
    lfoot ltoes
    rhipjoint rfemur
    rfemur rtibia
    rtibia rfoot
    rfoot rtoes
    lowerback upperback
    upperback thorax
    thorax lowerneck lclavicle rclavicle
    lowerneck upperneck
    upperneck head
    lclavicle lhumerus
    lhumerus lradius
    lradius lwrist
    lwrist lhand lthumb
    lhand lfingers
    rclavicle rhumerus
    rhumerus rradius
    rradius rwrist
    rwrist rhand rthumb
    rhand rfingers
  end

#!OML:ASF H:\Terrain\Patient Classification 1\Animal1\Tuesday\Animal1.ASF
:FULLY-SPECIFIED
:DEGREES
265
root 10.4925 17.2209 -20.2654 22.6191 -47.024 0.857653
lowerback 3.7103 -1.4092 -1.08311
upperback -5.21292 -2.06977 -0.785825
thorax -7.5211 -1.00233 -0.00366277
lowerneck -5.47964 5.10864 -2.7276
upperneck 4.87022 6.7905 4.2297
head 2.24476 3.45674 2.0604
rclavicle 1.77912e-014 3.77691e-014
rhumerus -62.1378 8.99114 -94.9417
rradius 44.8893
rwrist -49.8507
rhand 11.5989 5.76722
rfingers 7.12502
rthumb 36.6412 -20.3892
lclavicle 1.77912e-014 3.77691e-014
lhumerus -57.5203 4.86968 83.0476
lradius 27.7863
lwrist -4.4565
lhand 36.3967 48.5362
lfingers 7.12502
lthumb 59.3471 62.9842
rfemur -59.7646 10.1533 9.38748
rtibia 36.1556
rfoot 32.839 -0.609389
rtoes -6.03198
lfemur -16.8706 -11.816 -23.1753
ltibia 29.6486
lfoot 31.0024 6.18097
ltoes 20.8348
266
root 10.2899 17.253 -20.119 22.768 -46.7097 1.07682
lowerback 3.26186 -1.24295 -0.961943
upperback -5.24566 -1.83635 -0.860033
thorax -7.30229 -0.898764 -0.183113
lowerneck -5.66147 4.99574 -2.70581
upperneck 5.23167 6.65373 3.88407
head 2.41492 3.37941 1.95955
rclavicle -2.89232e-014 3.89618e-014
rhumerus -62.2574 9.08588 -94.8711
rradius 44.9666
rwrist -49.5542
rhand 12.9829 6.00412
rfingers 7.12502
rthumb 37.9497 -19.8088
lclavicle -2.89232e-014 3.89618e-014
lhumerus -57.5803 4.71735 83.1198
lradius 28.2628
lwrist -4.01186
lhand 38.1498 49.2847
lfingers 7.12502
lthumb 60.8446 62.1468
rfemur -59.6326 11.8793 7.01678
rtibia 34.9195
rfoot 34.056 -2.0371
rtoes -6.20158
lfemur -16.9214 -12.5559 -23.1248
ltibia 30.0715
lfoot 32.3576 6.10598
ltoes 22.8074
267
root 10.0826 17.281 -19.9674 23.0867 -46.2145 0.754495
lowerback 2.92621 -1.14984 -0.470664
upperback -5.23277 -1.66785 -0.78123
thorax -7.10451 -0.840988 -0.399115
lowerneck -5.72571 4.90908 -3.08792
upperneck 5.51688 6.56115 3.95336
head 2.512 3.32746 2.05729
rclavicle -4.80065e-014 -3.18055e-015
rhumerus -62.6433 9.55244 -95.2048
rradius 45.5697
rwrist -50.673
rhand 12.4787 4.88253
rfingers 7.12502
rthumb 37.4734 -21.0581
lclavicle -4.80065e-014 -3.18055e-015
lhumerus -57.6837 4.81105 83.1932
lradius 28.5099
lwrist -3.63717
lhand 39.3879 49.8292
lfingers 7.12502
lthumb 61.8858 61.4646
rfemur -59.2142 13.1888 5.67119
rtibia 34.1495
rfoot 33.6842 -7.05107
rtoes 0.15329
lfemur -17.0598 -13.0748 -22.7073
ltibia 31.2283
lfoot 33.408 6.2716
ltoes 28.4723
268
root 9.88085 17.2964 -19.825 23.5236 -45.5315 0.547441
lowerback 2.4921 -1.10135 0.0294502
upperback -5.29992 -1.56647 -0.720028
thorax -6.93537 -0.817433 -0.632431
lowerneck -5.64558 4.79278 -3.41982
upperneck 5.64536 6.42724 3.97921
head 2.53511 3.25353 2.12047
rclavicle -1.15295e-014 -9.93923e-015
rhumerus -63.1906 10.0237 -95.6201
rradius 46.1972
rwrist -51.4671
rhand 12.6788 4.88378
rfingers 7.12502
rthumb 37.6625 -21.0065
lclavicle -1.15295e-014 -9.93923e-015
lhumerus -57.8927 4.38667 83.5811
lradius 28.8916
lwrist -2.67359
lhand 39.5997 50.0867
lfingers 7.12502
lthumb 62.0626 61.5025
rfemur -59.0921 14.0398 4.6514
rtibia 33.8825
rfoot 33.3102 -11.4039
rtoes 12.3211
lfemur -17.7692 -13.559 -22.2508
ltibia 32.9454
lfoot 34.7574 6.63188
ltoes 30.0883
269
root 9.67886 17.2827 -19.6718 23.3728 -45.1312 1.04868
lowerback 2.07089 -0.93685 -0.0214777
upperback -5.3538 -1.35272 -0.797632
thorax -6.74661 -0.712422 -0.709938
lowerneck -5.57594 4.62205 -3.70418
upperneck 5.78695 6.22299 3.89969
head 2.5726 3.14182 2.13987
rclavicle -7.85199e-015 3.49861e-014
rhumerus -63.8007 10.3919 -95.8975
rradius 46.7996
rwrist -51.7287
rhand 13.1546 5.39278
rfingers 7.12502
rthumb 38.1118 -20.3759
lclavicle -7.85199e-015 3.49861e-014
lhumerus -58.1534 3.86915 83.9235
lradius 29.3844
lwrist -1.85683
lhand 40.1472 49.824
lfingers 7.12502
lthumb 62.5171 60.6588
rfemur -58.92 14.3864 3.68865
rtibia 34.0109
rfoot 33.7146 -10.328
rtoes 10.4135
lfemur -18.4409 -13.9525 -22.6068
ltibia 35.2354
lfoot 35.7596 6.50981
ltoes 27.3925
270
root 9.4764 17.2472 -19.5163 23.2613 -44.7495 1.1215
lowerback 1.90301 -0.757172 0.182755
upperback -5.35002 -1.09612 -0.758723
thorax -6.64479 -0.594538 -0.806495
lowerneck -5.56412 4.48478 -3.95431
upperneck 6.06464 6.06342 3.77021
head 2.6675 3.05033 2.14469
rclavicle -8.79125e-014 -2.0276e-014
rhumerus -64.3332 10.8312 -96.092
rradius 47.3806
rwrist -52.1621
rhand 13.0207 5.1656
rfingers 7.12502
rthumb 37.9854 -20.6376
lclavicle -8.79125e-014 -2.0276e-014
lhumerus -58.3746 3.79431 84.0029
lradius 29.6105
lwrist -1.56528
lhand 40.5002 48.8372
lfingers 7.12502
lthumb 62.8085 59.2866
rfemur -58.411 14.2531 3.92359
rtibia 34.5197
rfoot 33.7237 -8.72894
rtoes 7.2851
lfemur -18.981 -13.8445 -22.8379
ltibia 38.0744
lfoot 36.1049 4.61274
ltoes 19.5946
271
root 9.28298 17.2011 -19.3754 23.6842 -44.0494 0.598724
lowerback 1.66796 -0.680579 0.984621
upperback -5.32979 -0.943641 -0.630229
thorax -6.49681 -0.556079 -1.13641
lowerneck -5.41386 4.37384 -4.14127
upperneck 6.14315 5.93353 3.62137
head 2.67064 2.97451 2.12131
rclavicle -2.80783e-014 -3.57812e-015
rhumerus -64.6734 11.2341 -96.2403
rradius 47.8409
rwrist -52.5285
rhand 13.5184 5.27971
rfingers 7.12502
rthumb 38.4552 -20.3942
lclavicle -2.80783e-014 -3.57812e-015
lhumerus -58.4942 4.07334 83.8648
lradius 29.7186
lwrist -1.81343
lhand 40.5434 47.4815
lfingers 7.12502
lthumb 62.8441 57.8831
rfemur -57.9759 13.7094 5.12741
rtibia 35.3849
rfoot 33.6003 -6.43567
rtoes 4.14909
lfemur -20.0355 -13.6583 -22.3968
ltibia 41.4445
lfoot 36.0185 3.84774
ltoes 11.2734
